# xmcd
#
# Track frame offsets:
#	150
#	14259
#	33650
#	51704
#	69024
#
# Disc length: 1148 seconds
#
# Revision: 0
# Processed by: cddbd v1.5.1PL0 Copyright (c) Steve Scherf et al.
# Submitted via: dBpowerAMP V4.0
#
DISCID=3e047a05
DTITLE=Elizabeth Hunnicutt - (EP)
DYEAR=2003
DGENRE=P&W
TTITLE0=I Wanna
TTITLE1=Image
TTITLE2=Tell Me
TTITLE3=Hope In You
TTITLE4=Now Is The Time
EXTD=
EXTT0=
EXTT1=
EXTT2=
EXTT3=
EXTT4=
PLAYORDER=
